<svg xmlns="http://www.w3.org/2000/svg" viewBox="0 0 560 560">
  <g id="pomegranate-fruit">
    <path fill="#F80E4A" d="M203.49 45.37l2.902.998c9.454 4.517 17.54 10.828 24.353 18.8.59.69 1.428 1.17 2.15 1.746l.738-3.058c1.297-3.877 2.762-7.708 3.858-11.642 2.41-8.62 4.58-17.3 6.95-25.93.41-1.494 1.28-2.862 1.94-4.29 1.15.992 2.28 1.995 3.45 2.966.37.306.81.524 1.22.782 16.08 12.385 25.29 29.413 32.73 47.955l1.36-9.385c2.94-13.272 8.37-25.335 17.6-35.46 3.58-3.924 7.67-7.433 13.26-7.707 2.39-.118 4.85 1.08 7.27 1.68-.47 1.926-.87 3.87-1.41 5.78-2.45 8.74-2.41 17.526.03 26.2.63 2.228 2.4 4.26 4.03 6.037 1.18 1.288 2.52.877 2.84-1.118 6.54-4.716 13.03-9.508 19.65-14.097 1.69-1.17 3.82-1.696 5.73-2.51.85.198 1.72.388 2.6.578l1.18 2.332c.13 2.067.26 4.133.38 6.2.58 10.832-3.854 20.175-8.86 29.29-4.555 8.294-9.785 16.24-13.96 24.71-12.896 26.138 1.674 46.036 21.97 55.792.275-.01.466.12.566.37-.01 0 .22.08.22.08.338.22.67.45.99.67l5.93 3.02c11.48 4.67 22.97 9.32 34.43 14.05 1.223.5 2.256 1.47 3.353 2.21l3.82 1.98.96.55c.22.02.416.11.58.25.29-.02.472.1.553.38.69.69 1.31 1.47 2.087 2.05 13.46 10.14 23.95 22.88 32.585 37.24 14.74 24.51 25.51 50.84 35.236 77.61 8.51 23.44 12.45 47.52 8.8 72.52-2.84 19.45-8.87 37.88-17.2 55.61-13.55 28.82-33.05 52.47-60.37 69.33-21.472 13.25-44.91 21.6-69.08 28.35-18.853 5.26-37.354 5.57-55.94-1.16-16.05-5.82-32.743-7.61-49.78-7.15-11.98.32-23.99.34-35.97.01-11.32-.32-22.25-2.85-32.68-7.4-14.41-6.28-27.03-15.47-39.82-24.39-1.175-.83-2.593-1.3-3.9-1.94l.08.06-1.53-.85.038.03-1.57-1.52.065.05-2.29-1.576.05.047-.81-.805.055.05-.808-.803.06.05-.82-.805.086.052-1.52-.84c-24.69-19.38-38.844-44.79-44.314-75.62-7.18-40.44-6.48-80.52 3.75-120.33 7.533-29.31 19.093-56.8 38.62-80.304s43.69-39.504 74.33-44.873c9.81-1.72 19.523-4.18 28.17-9.58 14.586-9.11 19.836-22.62 15.295-39.26-2.8-10.25-8.28-19.17-13.51-28.27-3.59-6.24-6.56-12.84-9.8-19.27-2.31-5.29-4.35-10.63-2.93-16.59zm47.107 86.83c-.06.707-.128 1.412-.182 2.118-1.155 15.278-12.147 28.23-27.074 31.626-4.49 1.022-9.08 1.61-13.65 2.277-37.76 5.51-65.96 25.11-84.9 58.03-8.64 15.03-13.2 31.75-18.86 48-9.27 26.65-15.44 53.87-12.9 82.26 1.77 19.75 4.54 39.42 7.24 59.07 1.54 11.16 6.52 20.88 14.21 29.19 11.03 11.92 22.04 23.86 32.97 35.88 11 12.09 24.48 19.8 40.62 22.14 23.08 3.36 46.18 6.82 69.38 9.05 24.84 2.4 49.44.09 73.1-8.5 25.63-9.29 46.71-24.45 59.76-48.95 14.72-27.62 22.7-57.34 24.12-88.52.94-20.56.42-41.21-.07-61.81-.44-18.46-1.45-36.95-5.74-55.05-7.14-30.16-23.44-53.21-52.21-66.28-7.14-3.24-14.73-5.5-22-8.48-4.37-1.79-8.79-3.72-12.73-6.29-11.06-7.22-18.12-16.95-17.44-30.8-16.9 4.45-31.35 12.78-43.7 26.14-.99-11.74-3.74-21.84-9.91-31.05z"/>
    <path id="shadow_2_" fill="#0C0D11" d="M122.757 486.322c1.306.636 2.723 1.112 3.9 1.933 12.788 8.924 25.406 18.112 39.818 24.39 10.43 4.545 21.36 7.083 32.68 7.396 11.984.34 23.99.31 35.975-.01 17.036-.45 33.73 1.34 49.783 7.16 18.583 6.74 37.084 6.42 55.938 1.16 24.17-6.74 47.61-15.09 69.09-28.34 27.32-16.85 46.82-40.51 60.37-69.33 8.34-17.72 14.36-36.15 17.2-55.61 3.65-25-.29-49.09-8.8-72.52-9.72-26.77-20.49-53.1-35.23-77.61-8.63-14.36-19.12-27.1-32.58-37.24-.77-.58-1.39-1.36-2.08-2.05 11.55 6.6 21.17 15.41 29.01 26.06 26.11 35.5 42.15 75.69 53.42 117.84 7.22 27.01 4.05 53.9-4.51 80.26-9.81 30.23-24.54 57.5-48.27 79.23-19.16 17.55-41.82 29.13-66.13 37.65-14.31 5.02-28.78 9.52-43.92 11.6-12.31 1.69-24.18-.19-35.64-4.27-19.87-7.08-40.27-8.48-61.11-7.53-16.71.77-33.44.86-49.73-4.12-10.58-3.23-20.25-8.33-29.39-14.39-9.35-6.2-18.41-12.83-27.56-19.32-.84-.6-1.47-1.51-2.19-2.27zm234.63-324.302c-20.296-9.755-34.867-29.653-21.974-55.79 4.178-8.47 9.408-16.417 13.96-24.71 5.006-9.116 9.446-18.46 8.865-29.29-.11-2.068-.25-4.134-.375-6.2.808-.315 1.66-.548 2.41-.96 1.755-.965 2.35-.535 2.93 1.463 2.717 9.338 1.545 18.393-2.443 26.932-3.728 7.98-8.216 15.617-12.563 23.295-4.546 8.028-9.1 16.053-10.774 25.257-2.395 13.18 2.303 24 11.668 33.047 2.59 2.5 5.53 4.648 8.3 6.957zm-72.272-97.707l-1.356 9.385c-7.45-18.542-16.65-35.57-32.73-47.955.54-1.495 1.27-2.556 2.94-1.163 2.64 2.206 5.68 4.094 7.84 6.706 5.85 7.09 11.48 14.378 16.89 21.817 2.51 3.462 4.29 7.457 6.41 11.21zm43.6-4.588c-.317 1.995-1.658 2.406-2.836 1.118-1.63-1.777-3.4-3.808-4.03-6.036-2.45-8.675-2.49-17.46-.03-26.202.53-1.908.94-3.853 1.4-5.78 6.72 1.226 6.85 1.264 4.93 7.736-2.91 9.81-2.56 19.5.55 29.17zm-95.08 4.13l-.74 3.06c-.722-.578-1.56-1.056-2.15-1.746-6.812-7.98-14.9-14.29-24.352-18.81 10.723 3.29 19.568 9.48 27.24 17.49z"/>
    <path fill="#0C0D11" d="M365.097 166.177c-1.982-1.01-3.965-2.02-5.932-3.026l5.932 3.03zm-8.413-122.48c-.872-.19-1.745-.38-2.594-.58.88.188 1.738.383 2.594.58zM406.7 184.43l-3.82-1.98c1.29.667 2.555 1.323 3.82 1.98zM119.784 484.044l1.563 1.52-1.563-1.52zm-2.228-1.524l2.29 1.573c-.762-.525-1.526-1.05-2.29-1.574zm-3.698-3.033c.506.28 1.012.56 1.52.838-.507-.28-1.013-.56-1.52-.838zm294.382-294.25c-.162-.142-.357-.226-.58-.25.248-.01.44.075.58.25zM121.31 485.53l1.525.85-1.526-.85zm-6.016-5.262l.82.804-.82-.804zm.756.747l.807.805c-.27-.268-.537-.537-.806-.805zm242.13-318.532l-.226-.087c.004 0 .227.087.227.087z"/>
    <path fill="#0C0D11" d="M116.8 481.76c.27.27.54.54.81.807l-.81-.806z"/>
    <path fill="#FDFDFD" d="M250.597 132.2c6.173 9.208 8.923 19.31 9.91 31.056 12.355-13.36 26.802-21.69 43.705-26.135-.675 13.85 6.38 23.59 17.45 30.81 3.938 2.57 8.353 4.5 12.726 6.3 7.27 2.99 14.86 5.24 22.005 8.49 28.764 13.07 45.067 36.12 52.21 66.29 4.283 18.1 5.296 36.58 5.74 55.05.493 20.6 1.01 41.25.07 61.81-1.422 31.18-9.403 60.9-24.12 88.52-13.05 24.5-34.13 39.66-59.752 48.96-23.66 8.59-48.26 10.9-73.1 8.5-23.2-2.24-46.3-5.7-69.38-9.05-16.14-2.34-29.62-10.04-40.62-22.13-10.93-12.01-21.93-23.95-32.96-35.87-7.69-8.31-12.67-18.03-14.21-29.19-2.7-19.65-5.46-39.31-7.23-59.06-2.55-28.39 3.63-55.6 12.9-82.25 5.66-16.25 10.22-32.98 18.86-48 18.94-32.92 47.14-52.51 84.9-58.02 4.57-.67 9.17-1.26 13.66-2.28 14.93-3.4 25.92-16.35 27.08-31.62.06-.71.12-1.41.19-2.12zm111.27 215.607c2.285-.893 5.03-1.262 6.764-2.783 3.99-3.496 7.86-7.256 11.1-11.44 7.65-9.903 5.71-17.064-5.63-22.493-1.01-.48-2.06-1.21-3.09-1.21-1.53 0-3.54.05-4.52.96-6.78 6.26-11.79 13.79-14.96 22.48-2.94 8.05 1.54 14.19 10.36 14.5zM225.652 309.93c.316 9.333 2 17.57 5.7 25.343 3.236 6.802 9.6 8.595 15.195 3.598 2.495-2.22 4.85-5.86 5.132-9.05.52-5.97.04-12.19-1.02-18.12-1.49-8.37-7.12-11.55-15.43-9.61-1.58.37-3.1.94-4.66 1.38-3.67 1.05-6.08 2.92-4.93 6.47zm39.62 135.828c1.69 3.215 2.92 6.816 5.197 9.54 2.42 2.9 5.75 5.078 8.83 7.388 13.31 10.013 20.38 4.204 24.83-8.54.04-.117.14-.248.12-.348-.39-1.517-.31-3.505-1.27-4.468-6.61-6.67-14.63-11.105-23.57-13.878-7.54-2.337-13.1 1.814-14.15 10.306zm79.92-182.938c1.57 2.676 2.653 5.875 4.832 7.89 2.575 2.383 5.99 3.987 9.263 5.414 1.175.512 3.455.038 4.457-.855 6.815-6.07 11.66-13.57 14.938-22.07 3.432-8.89-2.228-15.81-11.726-14.42-7.648 1.12-20.58 15.69-21.764 24.03zm-90.72 109.33c2.612-1.028 5.493-1.646 7.783-3.16 6.39-4.22 10.8-10.322 14.185-17.05 2.183-4.336 1.268-8.76-2.46-11.875-2.814-2.352-6.298-3.896-9.45-5.854-2.056-1.27-3.606-.69-5.226.91-6.56 6.5-11.675 13.93-14.817 22.64-2.812 7.79 1.39 13.68 9.986 14.4zm44.773-73.438c.117-4.948-1.822-7.936-5.534-9.452-4.77-1.95-9.53-1.545-13.39 1.72-3.66 3.1-6.96 6.747-9.94 10.53-8.04 10.218-6.4 17.025 5.21 22.837 1 .5 2.08.844 3.06 1.373 1.98 1.068 3.38.405 4.91-1.076 6.66-6.436 11.59-13.966 14.83-22.616.52-1.378.76-2.86.87-3.316zm-96.22 167.89c2.41-.887 5.11-1.347 7.18-2.74 6.646-4.475 11.538-10.618 14.808-17.89 1.997-4.44.748-8.964-3.24-12.035-2.727-2.1-5.956-3.547-8.967-5.274-1.874-1.075-3.367-.69-4.935.854-6.58 6.476-11.67 13.928-14.9 22.58-2.98 7.984 1.26 13.9 10.06 14.505zm157.06-239.215c-1.518-3.876-2.866-7.832-4.663-11.574-.49-1.022-2.33-1.978-3.548-1.976-9.453.02-18.228 2.58-26.166 7.768-3.118 2.038-3.173 3.77-.862 6.76 4.244 5.49 8.255 11.167 12.587 16.587.895 1.12 2.782 2.082 4.192 2.054 9.62-.185 17.552-9.028 18.458-19.62zm-73.497 23.965c-.793.712-2.112 1.573-3.008 2.754-8.902 11.736-1.38 29.475 13.293 31.203 1.318.15 3.163-.66 4.135-1.64 6.288-6.36 10.313-14.02 12.395-22.7 1.09-4.55.01-5.8-4.65-6.24-5.192-.5-10.37-1.18-15.538-1.9-1.968-.28-3.892-.87-6.628-1.49zm83.74 118.225c-.31-9.282-7.05-17.314-16.682-19.194-1.493-.29-3.785.345-4.825 1.413-6.31 6.482-10.48 14.23-12.5 23.085-.93 4.1.23 5.38 4.39 5.8 5.56.56 11.13 1.19 16.62 2.21 7.31 1.37 9.22.48 11.61-6.75.7-2.11.95-4.36 1.4-6.55zM290.3 336.044c.672 4.298 1.11 8.648 2.068 12.88 1.53 6.752 5.515 9.794 12.428 9.044 3.63-.394 7.17-1.888 10.658-3.145.758-.273 1.554-1.636 1.59-2.528.435-10.273-1.46-20.113-6.27-29.24-2.548-4.834-7.12-6.14-12.11-3.738-7.067 3.4-8.24 9.73-8.364 16.727zm69.34-36.288c-.834-4.768-1.39-9.606-2.57-14.285-1.49-5.9-6.11-8.92-12.107-8-3.28.51-6.44 1.78-9.665 2.67-2.007.56-2.552 1.84-2.596 3.88-.2 9.25 1.525 18.08 5.335 26.5 3.63 8.03 11.383 9.18 17.335 2.59 3.436-3.8 3.972-8.44 4.266-13.34zM203.01 207.53c.146 8.712 2.02 17.027 5.88 24.853 2.7 5.467 7.253 7.026 12.73 4.404 5.302-2.537 7.774-7.126 7.725-12.67-.05-5.69-.6-11.45-1.667-17.04-1.23-6.44-5.665-9.42-12.215-8.888-2.324.18-4.668.77-6.885 1.52-5.617 1.9-5.59 1.97-5.568 7.82zm108.485 234.427c5.226-1.11 10.55-1.886 15.652-3.41 6.324-1.892 9.086-6.532 7.816-12.983-.663-3.37-2.192-6.6-3.626-9.76-.39-.858-1.847-1.734-2.823-1.744-10.35-.103-20.006 2.622-28.888 7.866-4.175 2.465-5.258 6.47-3.514 11.037 2.167 5.675 7.33 8.532 15.383 8.994zm-68.43 14.593c9.06-.228 17.034-6.727 19.383-15.667.94-3.577.453-5.97-2.795-8.27-6.63-4.692-13.672-8.187-21.682-9.67-5-.926-6.13.164-6.31 5.36-.19 5.46-.43 10.95-1.2 16.348-.97 6.81-.43 8.19 6.1 10.37 2.11.7 4.34 1.04 6.51 1.54zm-70.23-167.835c.02 11.034 7.56 19.724 17.433 21.025 1.18.156 2.98-.185 3.646-.993 5.812-7.07 10.66-14.712 12.714-23.805.89-3.944-.42-5.424-4.462-5.847-5.546-.58-11.106-1.202-16.582-2.224-7.285-1.35-9.313-.39-11.65 6.75-.652 2-.896 4.13-1.1 5.1zm-14.327 48.417c.255.903.413 2.456 1.1 3.723 2.962 5.466 8.287 7.7 13.776 9.57.623.212 1.743-.235 2.297-.743 7.8-7.15 13.51-15.673 16.48-25.874 1.05-3.594-.1-6.754-3.13-8.94-3.31-2.385-7.05-3.012-11.04-1.93-6.84 1.86-18.41 15.117-19.28 22.12-.06.495-.09.993-.18 2.074zm23.267 29.163c-1.666-2.63-2.886-5.754-5.115-7.755-2.524-2.266-5.85-3.774-9.043-5.09-1.207-.5-3.492-.07-4.47.827-6.828 6.253-11.84 13.807-15.03 22.522-3.043 8.3 2.22 14.94 11.02 13.95 8.346-.94 21.58-15.49 22.638-24.46zm81.574 27.502c-.29-9.383-7.71-18.044-16.96-19.226-1.46-.18-3.54.47-4.55 1.5-6.22 6.38-10.28 14.04-12.38 22.69-1.09 4.47.1 5.82 4.71 6.3 5.3.55 10.64 1.01 15.87 2.02 7.57 1.46 9.84.37 12.11-7.06.61-2 .8-4.13 1.19-6.21zm46.66-208.837c.16 7.466 2.02 15.32 5.58 22.73 3.23 6.738 9.88 8.273 15.34 3.208 2.23-2.07 4.08-5.16 4.82-8.11 1.86-7.33.38-14.685-1.73-21.768-1.5-5.028-5.45-7.46-10.61-7.137-2.46.155-4.97.625-7.32 1.382-6.4 2.06-6.49 2.335-6.11 9.7zm67.18 218.7c.3-.117.6-.23.9-.348-1.54-3.996-2.94-8.056-4.72-11.943-.43-.94-2.11-1.82-3.23-1.84-9.76-.17-18.67 2.7-26.83 7.97-2.52 1.62-2.65 3.61-.83 5.99 4.37 5.72 8.55 11.58 13.04 17.21.88 1.1 2.84 2.04 4.22 1.93 10.01-.76 17.37-8.92 17.42-18.99zM210.1 371.9c-.216-8.36-2.158-16.32-5.84-23.806-2.787-5.657-7.984-7.13-13.478-4.035-3.46 1.94-5.65 4.91-6.45 8.78-1.667 8.05-.485 15.91 2.23 23.53 1.2 3.36 3.923 5.66 7.625 5.75 3.057.07 6.245-.18 9.183-.99 6.79-1.87 6.93-2.31 6.725-9.24zm11.817 30.732c-1.567-4.123-2.967-8.323-4.815-12.315-.476-1.025-2.377-1.996-3.603-1.97-9.29.187-17.98 2.64-25.84 7.683-3.31 2.122-3.37 3.988-.96 7.037 4.08 5.15 8.23 10.275 11.81 15.762 1.78 2.72 3.69 3.29 6.46 2.79 8.96-1.61 15.75-9.5 16.93-18.99zm61.522-177.72c-.47-7.4-3.69-13.315-10.08-17.3-.96-.6-2.7-.74-3.73-.3-8.69 3.717-15.8 9.455-21.18 17.25-2.02 2.92-1.45 4.697 1.52 6.408 6.12 3.54 12.26 7.057 18.25 10.815 1.88 1.185 3.32 1.18 5.11.12 6.44-3.817 9.58-9.552 10.09-16.99zm-39.43 13.014c-8.83.668-16.45 2.68-23.46 6.825-5.29 3.13-5.31 4.47-1.47 9.13 3.75 4.56 7.2 9.43 10.3 14.46 1.55 2.54 3.11 3.44 5.95 3.05 13.95-1.88 21.2-16.89 14.31-29.63-1.43-2.64-3.03-4.61-5.65-3.82zm72.63-8.02l-.73-.313c-.38-3.59-.29-7.315-1.26-10.74-1.2-4.222-2.75-8.55-5.13-12.182-2.69-4.09-8.94-5.16-13.16-3.22-4.52 2.07-3.9 6.33-3.18 9.74 1.78 8.48 3.79 16.98 6.61 25.15 2.18 6.3 9.37 6.98 13.18 1.42 1.92-2.8 2.48-6.53 3.65-9.85zM209.12 252.59c-.76-4.064-1.482-10.02-3.055-15.745-1.56-5.693-5.476-9.42-11.69-10.01-4.917-.466-8.297 1.874-8.28 6.678.04 10.848 2.624 21.248 7.666 30.86 2.09 3.98 6.43 4.337 10.35 1.643 4.1-2.818 4.61-7.13 5.02-13.427zm163.084 99.936c1.2 6.5 1.962 12.435 3.45 18.182 1.16 4.48 3.98 8.002 8.72 9.485 7.36 2.303 12.5-1.153 11.254-8.6-1.502-9.014-3.88-17.957-6.76-26.638-2.04-6.142-9.116-6.9-12.98-1.602-1.935 2.658-2.566 6.268-3.683 9.173zm-129 129.616c9.24-1.266 19.09-3.93 28.07-9.124 4.174-2.417 4.88-6.892 1.705-10.542-1.54-1.764-3.92-3.54-6.13-3.844-9.25-1.277-18.24.282-26.32 4.987-2.46 1.42-4.6 4.4-5.57 7.14-2.35 6.58.98 11.36 8.23 11.37zm22.125-105.126c1.15 6.537 1.85 11.97 3.13 17.265 1.05 4.37 3.58 7.94 7.93 9.8 7.44 3.18 12.78-.3 12.34-8.23-.51-9.28-2.87-18.18-6.66-26.64-2.66-5.94-8.89-6.99-12.82-1.82-2.18 2.86-2.85 6.86-3.93 9.64zm12.23-95.71c-1.34-6.05-2.35-12.202-4.14-18.118-1.33-4.394-4.69-7.247-9.42-8.223-6.33-1.307-10.12 1.463-9.93 7.852.29 9.85 2.82 19.255 6.95 28.16 2.47 5.332 7.59 6.116 12.01 2.19 3.54-3.147 3.86-7.36 4.52-11.86zm-107.5 25.244l.92-.254c-1.74-6.832-2.93-13.87-5.39-20.432-2-5.34-7.66-7.654-12.95-6.664-2.89.54-5.18 1.832-5.29 5.26-.38 11.62 2.5 22.49 7.93 32.657 1.57 2.95 5.06 3.44 8.28 1.925 5.34-2.516 6.35-7.284 6.49-12.49zm136.01 55.48l-.04-.496c-3.84.336-7.74.32-11.48 1.084-6.88 1.402-10.48 7.725-7.31 12.974 2.47 4.093 6.56 6.213 11.5 6.35 7.86.217 15.03-1.874 21.31-6.62 1.33-1.004 2.53-2.46 3.22-3.97 2.28-5.052-1.4-10.368-6.79-10.026-3.47.218-6.94.47-10.41.706zm-39.01 69.36c7.39-.84 14.04-2.727 19.77-7.13 1.5-1.155 2.91-2.842 3.58-4.586 1.99-5.183-1.7-9.885-7.08-9.575-5.1.29-10.22.21-15.31.57-2.95.2-5.99.59-8.77 1.53-3.36 1.13-5.69 3.66-6 7.42-.31 3.7 1.33 6.77 4.47 8.44 2.88 1.53 6.2 2.24 9.33 3.31zm49.19-182.502h.19c0 4.965-.4 9.974.14 14.88.39 3.585 2.72 6.432 6.55 7.397 3.67.925 6.66-.524 9.04-3.17 6.51-7.255 3.6-27.993-4.59-33.216-3.28-2.09-6.72-1.34-9.54.49-1.25.81-1.54 3.5-1.73 5.39-.28 2.71-.07 5.47-.07 8.21zm7.12 43.425l.59-.008c-.13-2.11-.07-4.255-.42-6.327-.95-5.5-4.17-8.998-8.3-9.31-4.46-.335-9.11 2.83-10.24 8.15-.91 4.282-1.34 9.02-.45 13.232.99 4.732 3.3 9.347 5.8 13.556 2.16 3.637 6 3.145 9.76 2.13 3.55-.958 3.24-3.534 3.24-6.138v-15.286zM185.12 426.68c0-4.607.31-9.24-.086-13.81-.413-4.77-3.925-8.304-7.878-8.83-3.777-.502-8.127 2.276-10.048 6.43-.26.565-.543 1.137-.686 1.737-2.306 9.674-.38 18.53 5.326 26.582.69.97 1.776 1.8 2.86 2.32 5.225 2.52 10.577-.89 10.517-6.6-.027-2.62-.004-5.23-.008-7.85zm141.185-84.72h-.242c0 1.995-.103 3.996.02 5.985.37 6.08 3.8 10.466 8.373 10.844 4.904.4 9.77-3.12 10.62-9.08.703-4.94.56-10.24-.49-15.1-.858-3.97-3.21-7.82-5.626-11.2-2.518-3.53-6.375-2.4-9.962-1.38-3.492.99-2.586 3.81-2.655 6.12-.14 4.59-.042 9.2-.042 13.8zm-106.8 26.77l-.663.015c.142 1.61.17 3.238.445 4.824.95 5.46 3.986 9.06 7.77 9.33 5.465.39 9.45-2.49 11.045-8.47 2.51-9.42.175-17.99-5.158-25.89-.48-.71-1.137-1.34-1.827-1.86-3.142-2.35-6.32-1.28-9.572-.13-2.95 1.04-1.945 3.45-1.99 5.37-.137 5.6-.05 11.2-.05 16.8zM315 405.226c.055.328.11.656.163.984 4.588-.89 9.492-1.042 13.693-2.838 6.632-2.835 6.952-11.004.943-15.072-1.8-1.217-4.03-2.16-6.16-2.452-8.53-1.17-16.3 1.083-23.32 5.985-1 .7-1.89 1.645-2.62 2.626-2.5 3.32-1.14 6.61.25 9.87 1.27 2.97 3.87 1.63 5.89 1.62 3.71-.02 7.43-.47 11.15-.73zm-98.428-84.93h.098c0-3.238.2-6.49-.047-9.71-.376-4.91-3.706-8.902-7.58-9.543-4.358-.72-9.01 1.968-10.562 7.054-1.09 3.592-1.47 7.57-1.31 11.34.25 6.076 2.37 11.71 6.22 16.51 2.42 3.02 5.83 3.276 10.24 1.867 3.85-1.227 2.83-4.17 2.92-6.714.14-3.598.04-7.204.04-10.805zm-7.242-41.224l-.544.02c.214 2.843.135 5.747.71 8.515.974 4.7 4.41 7.912 8.11 8.154 3.95.26 8.35-2.41 9.645-6.89 1.09-3.73 1.46-7.8 1.37-11.71-.12-5.84-2.27-11.2-5.7-15.94-2.49-3.43-5.95-3.92-10.75-2.32-4.01 1.34-2.72 4.5-2.8 7.14-.13 4.35-.03 8.69-.03 13.04z"/>
    <path fill="#F80E4A" d="M361.866 347.807c-8.82-.308-13.3-6.448-10.358-14.498 3.174-8.69 8.177-16.23 14.962-22.48.987-.91 2.992-.96 4.526-.96 1.033 0 2.09.73 3.097 1.21 11.34 5.43 13.277 12.59 5.63 22.49-3.232 4.18-7.107 7.94-11.09 11.44-1.736 1.52-4.48 1.89-6.767 2.78zM225.653 309.93c-1.15-3.552 1.264-5.424 4.932-6.467 1.557-.443 3.082-1.01 4.655-1.378 8.31-1.946 13.94 1.235 15.428 9.61 1.054 5.937 1.54 12.148 1.012 18.126-.28 3.19-2.637 6.83-5.132 9.06-5.595 5-11.96 3.21-15.195-3.6-3.7-7.77-5.384-16.01-5.7-25.34zm39.62 135.828c1.052-8.492 6.608-12.643 14.146-10.305 8.94 2.773 16.95 7.208 23.56 13.878.95.97.88 2.96 1.26 4.47.02.1-.08.23-.12.35-4.45 12.75-11.52 18.55-24.83 8.54-3.08-2.31-6.41-4.49-8.83-7.39-2.28-2.72-3.51-6.32-5.2-9.54zm79.92-182.938c1.183-8.343 14.116-22.908 21.764-24.03 9.498-1.393 15.158 5.527 11.726 14.417-3.28 8.493-8.123 15.993-14.938 22.063-1.002.892-3.282 1.367-4.457.855-3.274-1.427-6.69-3.03-9.263-5.413-2.18-2.016-3.263-5.216-4.832-7.892zm-90.72 109.33c-8.595-.72-12.798-6.607-9.986-14.398 3.142-8.706 8.255-16.138 14.817-22.634 1.62-1.604 3.17-2.184 5.226-.907 3.152 1.96 6.637 3.51 9.45 5.86 3.728 3.12 4.643 7.54 2.46 11.88-3.384 6.73-7.795 12.83-14.184 17.05-2.29 1.52-5.17 2.14-7.783 3.16zm44.773-73.438c-.117.458-.357 1.938-.872 3.316-3.234 8.65-8.17 16.18-14.824 22.616-1.532 1.482-2.93 2.144-4.91 1.076-.982-.53-2.06-.873-3.06-1.373-11.603-5.81-13.247-12.62-5.204-22.836 2.98-3.78 6.275-7.43 9.943-10.53 3.86-3.26 8.61-3.67 13.39-1.72 3.71 1.52 5.65 4.51 5.53 9.46zm-96.22 167.89c-8.797-.605-13.034-6.52-10.054-14.506 3.228-8.65 8.315-16.103 14.9-22.58 1.568-1.542 3.062-1.928 4.935-.853 3.01 1.727 6.24 3.175 8.966 5.274 3.99 3.07 5.238 7.595 3.24 12.036-3.27 7.27-8.16 13.414-14.808 17.89-2.07 1.392-4.77 1.85-7.18 2.74zm157.06-239.215c-.907 10.59-8.84 19.434-18.46 19.62-1.41.027-3.295-.934-4.19-2.054-4.333-5.42-8.343-11.096-12.588-16.588-2.31-2.99-2.256-4.72.86-6.76 7.94-5.188 16.714-7.746 26.167-7.767 1.218-.003 3.057.954 3.548 1.976 1.797 3.74 3.145 7.698 4.662 11.573zm-73.496 23.965c2.735.625 4.66 1.214 6.626 1.486 5.17.716 10.346 1.402 15.54 1.895 4.658.442 5.738 1.698 4.648 6.24-2.082 8.68-6.107 16.346-12.395 22.7-.98.982-2.82 1.79-4.14 1.635-14.67-1.728-22.2-19.467-13.3-31.203.89-1.18 2.21-2.04 3.01-2.753zm83.74 118.225c-.452 2.19-.7 4.448-1.396 6.558-2.384 7.233-4.294 8.118-11.603 6.753-5.48-1.025-11.06-1.65-16.61-2.21-4.16-.418-5.32-1.703-4.39-5.796 2.02-8.854 6.19-16.604 12.5-23.085 1.04-1.067 3.34-1.704 4.83-1.413 9.63 1.88 16.37 9.91 16.69 19.193zm-80.028-33.533c.126-7 1.297-13.327 8.364-16.727 4.99-2.4 9.562-1.096 12.11 3.738 4.81 9.127 6.705 18.967 6.27 29.24-.037.892-.833 2.255-1.59 2.528-3.488 1.256-7.027 2.75-10.658 3.145-6.913.75-10.9-2.292-12.428-9.043-.96-4.232-1.397-8.583-2.068-12.88zm69.338-36.288c-.293 4.908-.83 9.544-4.265 13.346-5.952 6.586-13.706 5.437-17.336-2.587-3.81-8.42-5.54-17.25-5.34-26.5.04-2.037.59-3.32 2.59-3.876 3.22-.9 6.38-2.17 9.66-2.67 5.99-.92 10.61 2.1 12.1 8 1.18 4.68 1.73 9.51 2.57 14.28zM203.01 207.53c-.023-5.84-.05-5.92 5.568-7.818 2.218-.75 4.56-1.334 6.885-1.523 6.55-.54 10.984 2.44 12.215 8.88 1.068 5.59 1.617 11.35 1.667 17.04.05 5.54-2.424 10.13-7.724 12.67-5.47 2.62-10.03 1.06-12.73-4.41-3.86-7.83-5.73-16.14-5.88-24.86zm108.485 234.427c-8.053-.462-13.217-3.32-15.383-8.995-1.744-4.57-.66-8.572 3.514-11.037 8.882-5.244 18.538-7.97 28.888-7.866.976.01 2.434.88 2.823 1.74 1.433 3.16 2.962 6.39 3.626 9.76 1.27 6.45-1.492 11.09-7.816 12.98-5.1 1.52-10.426 2.3-15.652 3.41zm-68.43 14.593c-2.174-.5-4.403-.833-6.51-1.534-6.534-2.177-7.067-3.564-6.1-10.365.77-5.39 1.015-10.88 1.205-16.34.18-5.19 1.31-6.28 6.31-5.36 8.01 1.48 15.053 4.98 21.683 9.67 3.25 2.3 3.735 4.7 2.795 8.27-2.348 8.94-10.322 15.44-19.384 15.67zm-70.23-167.835c.203-.972.447-3.1 1.1-5.093 2.336-7.15 4.364-8.11 11.65-6.75 5.475 1.022 11.036 1.643 16.58 2.224 4.042.423 5.353 1.903 4.463 5.847-2.053 9.093-6.902 16.735-12.714 23.805-.664.808-2.465 1.148-3.646.993-9.874-1.3-17.413-9.99-17.433-21.02zm-14.327 48.417c.095-1.08.124-1.58.186-2.074.87-7.003 12.445-20.262 19.285-22.12 3.99-1.084 7.73-.456 11.04 1.93 3.03 2.186 4.18 5.345 3.13 8.94-2.98 10.2-8.69 18.723-16.48 25.873-.56.51-1.68.96-2.3.75-5.49-1.87-10.82-4.1-13.78-9.57-.69-1.26-.85-2.82-1.1-3.72zm23.267 29.163c-1.058 8.973-14.292 23.52-22.637 24.46-8.802.992-14.064-5.65-11.022-13.957 3.19-8.714 8.203-16.268 15.03-22.522.98-.896 3.264-1.326 4.47-.828 3.193 1.318 6.52 2.826 9.044 5.09 2.23 2.003 3.45 5.128 5.115 7.757zm81.575 27.502c-.388 2.073-.583 4.204-1.195 6.208-2.268 7.43-4.537 8.52-12.114 7.06-5.22-1.008-10.56-1.473-15.86-2.02-4.6-.475-5.79-1.826-4.71-6.297 2.11-8.647 6.17-16.308 12.38-22.684 1.01-1.03 3.09-1.68 4.55-1.493 9.26 1.19 16.68 9.85 16.96 19.23zm46.665-208.837c-.383-7.363-.287-7.637 6.104-9.698 2.34-.757 4.85-1.227 7.31-1.38 5.16-.324 9.11 2.108 10.61 7.135 2.1 7.083 3.58 14.438 1.72 21.77-.75 2.948-2.6 6.038-4.83 8.108-5.47 5.065-12.11 3.53-15.35-3.208-3.56-7.406-5.42-15.264-5.58-22.726zm67.18 218.696c-.053 10.064-7.412 18.228-17.423 18.984-1.378.104-3.338-.834-4.218-1.936-4.49-5.626-8.673-11.493-13.047-17.213-1.817-2.37-1.69-4.36.826-5.99 8.158-5.27 17.073-8.14 26.828-7.96 1.12.02 2.8.9 3.23 1.84 1.78 3.89 3.18 7.95 4.71 11.95l-.9.35zm-167.085-31.76c.207 6.93.066 7.366-6.726 9.238-2.937.81-6.125 1.063-9.185.986-3.71-.093-6.43-2.387-7.63-5.755-2.72-7.613-3.9-15.475-2.23-23.53.8-3.86 2.99-6.83 6.45-8.78 5.49-3.093 10.69-1.62 13.47 4.037 3.68 7.483 5.62 15.444 5.84 23.804zm11.818 30.734c-1.18 9.49-7.965 17.383-16.926 18.988-2.775.497-4.686-.068-6.466-2.793-3.585-5.486-7.738-10.613-11.816-15.762-2.415-3.05-2.353-4.916.955-7.037 7.86-5.043 16.55-7.496 25.837-7.684 1.225-.025 3.127.946 3.602 1.97 1.848 3.994 3.248 8.194 4.814 12.317zm61.522-177.72c-.513 7.44-3.655 13.175-10.094 16.993-1.79 1.06-3.224 1.064-5.112-.12-5.988-3.76-12.128-7.277-18.25-10.816-2.962-1.71-3.534-3.486-1.52-6.408 5.373-7.8 12.49-13.54 21.174-17.25 1.036-.45 2.772-.3 3.73.29 6.383 3.98 9.605 9.9 10.072 17.3zm-39.427 13.013c2.62-.787 4.216 1.182 5.646 3.827 6.88 12.74-.37 27.75-14.32 29.635-2.85.384-4.4-.517-5.96-3.05-3.1-5.035-6.55-9.9-10.3-14.46-3.84-4.665-3.83-6 1.46-9.128 7-4.143 14.63-6.156 23.45-6.824zm72.632-8.02c-1.174 3.313-1.732 7.048-3.652 9.85-3.804 5.555-11.004 4.875-13.18-1.42-2.826-8.176-4.837-16.672-6.618-25.152-.717-3.41-1.34-7.66 3.178-9.74 4.222-1.93 10.47-.86 13.158 3.23 2.39 3.63 3.93 7.96 5.13 12.19.97 3.43.88 7.15 1.26 10.74l.73.31zm-107.528 22.685c-.408 6.298-.918 10.608-5.016 13.427-3.91 2.694-8.25 2.338-10.34-1.642-5.04-9.612-7.62-20.013-7.66-30.86-.01-4.805 3.37-7.145 8.28-6.68 6.22.59 10.13 4.318 11.7 10.01 1.57 5.725 2.3 11.682 3.06 15.745zm163.083 99.937c1.118-2.905 1.75-6.515 3.686-9.173 3.862-5.297 10.94-4.54 12.978 1.602 2.88 8.68 5.258 17.624 6.76 26.637 1.243 7.45-3.892 10.91-11.255 8.61-4.75-1.48-7.57-5-8.72-9.48-1.49-5.74-2.26-11.68-3.45-18.18zM243.206 482.142c-7.25-.01-10.574-4.792-8.23-11.378.974-2.736 3.118-5.717 5.57-7.146 8.075-4.706 17.07-6.264 26.317-4.987 2.202.31 4.586 2.08 6.122 3.85 3.177 3.65 2.47 8.13-1.71 10.54-8.978 5.2-18.83 7.86-28.07 9.13zm22.128-105.126c1.078-2.784 1.75-6.783 3.924-9.64 3.935-5.175 10.16-4.118 12.82 1.82 3.79 8.467 6.15 17.364 6.66 26.647.44 7.936-4.9 11.415-12.337 8.235-4.35-1.863-6.88-5.427-7.93-9.797-1.27-5.29-1.97-10.72-3.13-17.26zm12.236-95.71c-.654 4.5-.975 8.713-4.52 11.86-4.42 3.926-9.54 3.14-12.012-2.19-4.128-8.906-6.654-18.31-6.95-28.16-.19-6.39 3.6-9.16 9.932-7.852 4.728.976 8.086 3.83 9.413 8.223 1.788 5.918 2.795 12.07 4.137 18.12zM170.067 306.55c-.147 5.207-1.155 9.976-6.495 12.492-3.214 1.514-6.705 1.024-8.28-1.925-5.427-10.167-8.31-21.036-7.924-32.657.113-3.428 2.397-4.72 5.285-5.26 5.285-.99 10.95 1.323 12.948 6.663 2.46 6.563 3.65 13.6 5.39 20.432l-.92.256zm136.013 55.48c3.47-.237 6.94-.488 10.41-.708 5.388-.34 9.072 4.974 6.786 10.025-.684 1.51-1.892 2.967-3.22 3.97-6.28 4.747-13.447 6.84-21.308 6.62-4.94-.136-9.03-2.256-11.5-6.348-3.17-5.25.435-11.58 7.31-12.98 3.745-.77 7.65-.75 11.482-1.09l.04.5zm-39.01 69.36c-3.127-1.07-6.45-1.778-9.33-3.313-3.14-1.674-4.784-4.746-4.476-8.448.313-3.76 2.634-6.29 5.997-7.43 2.79-.94 5.82-1.33 8.78-1.54 5.1-.36 10.22-.28 15.32-.57 5.38-.31 9.07 4.39 7.08 9.57-.67 1.74-2.08 3.43-3.58 4.58-5.72 4.4-12.37 6.29-19.76 7.13z"/>
    <path fill="#F80E4A" d="M316.26 248.887c0-2.742-.206-5.504.072-8.217.194-1.893.487-4.59 1.73-5.397 2.814-1.83 6.258-2.584 9.536-.495 8.196 5.223 11.1 25.96 4.59 33.215-2.377 2.647-5.37 4.096-9.044 3.17-3.83-.964-6.163-3.812-6.553-7.395-.53-4.907-.13-9.916-.13-14.88h-.19zm7.125 43.425c0 5.096.003 10.19 0 15.287-.003 2.6.308 5.18-3.245 6.13-3.765 1.01-7.602 1.5-9.765-2.13-2.503-4.21-4.808-8.83-5.805-13.56-.888-4.22-.458-8.95.45-13.23 1.13-5.32 5.78-8.49 10.242-8.15 4.133.31 7.352 3.81 8.3 9.3.356 2.07.292 4.21.42 6.32h-.597zM185.125 426.68c.002 2.613-.02 5.227.007 7.84.06 5.707-5.292 9.116-10.517 6.597-1.084-.523-2.17-1.357-2.86-2.33-5.707-8.05-7.632-16.907-5.326-26.58.14-.6.42-1.173.68-1.738 1.92-4.16 6.27-6.94 10.04-6.43 3.95.52 7.46 4.06 7.87 8.83.39 4.57.08 9.2.08 13.81zm141.183-84.72c0-4.602-.097-9.205.04-13.8.07-2.304-.836-5.13 2.656-6.12 3.587-1.02 7.444-2.15 9.962 1.376 2.415 3.38 4.767 7.225 5.624 11.194 1.05 4.863 1.195 10.165.49 15.1-.85 5.958-5.713 9.484-10.62 9.078-4.573-.378-8.003-4.763-8.375-10.844-.122-1.988-.02-3.99-.02-5.986h.243zm-106.8 26.77c0-5.6-.09-11.203.047-16.8.047-1.916-.957-4.333 1.99-5.373 3.254-1.147 6.43-2.22 9.576.132.69.51 1.35 1.14 1.83 1.85 5.34 7.9 7.67 16.47 5.16 25.89-1.59 5.98-5.58 8.86-11.04 8.46-3.78-.28-6.82-3.87-7.77-9.34-.27-1.59-.3-3.22-.44-4.83l.66-.02zM315 405.225c-3.716.268-7.43.71-11.15.732-2.013.01-4.62 1.347-5.89-1.624-1.394-3.26-2.756-6.548-.254-9.874.738-.99 1.622-1.93 2.622-2.63 7.01-4.9 14.783-7.16 23.31-5.99 2.137.29 4.364 1.23 6.16 2.45 6.01 4.06 5.69 12.23-.942 15.07-4.2 1.79-9.104 1.95-13.693 2.84l-.162-.99zm-98.428-84.93c0 3.602.098 7.207-.033 10.804-.1 2.54.92 5.48-2.92 6.71-4.42 1.41-7.82 1.15-10.24-1.87-3.85-4.8-5.97-10.44-6.22-16.51-.16-3.77.22-7.75 1.31-11.34 1.55-5.09 6.2-7.78 10.56-7.06 3.87.64 7.2 4.63 7.58 9.54.24 3.22.04 6.47.04 9.71h-.1zm-7.242-41.225c0-4.345-.094-8.694.035-13.037.08-2.64-1.214-5.792 2.8-7.132 4.795-1.6 8.26-1.12 10.75 2.32 3.434 4.74 5.583 10.1 5.705 15.94.082 3.91-.29 7.98-1.37 11.72-1.296 4.48-5.696 7.15-9.646 6.89-3.7-.24-7.135-3.45-8.11-8.15-.574-2.77-.494-5.67-.71-8.51l.546-.02z"/>
    <path fill="none" d="M-44.375-50.375h648.75v660.75h-648.75z"/>
  </g>
</svg>
